<?xml version="1.0" standalone="no"?>
<!DOCTYPE svg PUBLIC "-//W3C//DTD SVG 20010904//EN"
 "http://www.w3.org/TR/2001/REC-SVG-20010904/DTD/svg10.dtd">
<svg version="1.0" xmlns="http://www.w3.org/2000/svg"
 width="300.000000pt" height="188.000000pt" viewBox="0 0 300.000000 188.000000"
 preserveAspectRatio="xMidYMid meet">
<metadata>
Created by potrace 1.10, written by Peter Selinger 2001-2011
</metadata>
<g transform="translate(0.000000,188.000000) scale(0.100000,-0.100000)"
fill="#000000" stroke="none">
<path d="M1394 1736 c-39 -28 -60 -222 -25 -234 6 -2 11 -8 11 -13 0 -6 -5 -7
-12 -3 -8 5 -9 2 -5 -10 4 -10 7 -29 7 -42 0 -17 6 -24 20 -24 24 0 25 4 5 34
-17 25 -11 56 10 56 22 0 24 13 10 45 l-14 30 6 -32 c4 -25 2 -33 -10 -33 -22
0 -34 21 -35 60 -1 54 6 78 26 83 16 4 16 5 0 6 -27 2 -21 21 6 21 13 0 31 3
39 6 10 3 14 -2 13 -18 -1 -13 -7 -22 -15 -20 -7 1 -19 -3 -27 -9 -16 -13 -19
-49 -4 -49 10 0 14 14 11 39 -5 31 24 1 34 -35 10 -38 11 -39 45 -33 19 3 59
3 89 1 48 -5 53 -3 49 14 -4 21 -43 24 -105 9 -26 -6 -33 -4 -42 13 -13 25 -5
49 17 55 12 3 10 5 -5 6 -18 1 -23 7 -23 30 0 20 -8 35 -22 45 -27 19 -29 19
-54 2z m66 -26 c0 -8 -36 -20 -60 -19 -10 0 -8 3 5 9 19 8 19 9 -3 9 -13 1
-21 5 -18 9 6 10 76 3 76 -8z"/>
<path d="M1570 1676 c-6 -8 -18 -12 -26 -9 -8 3 -14 0 -14 -6 0 -16 31 -13 51
5 22 20 46 9 25 -12 -8 -8 -34 -14 -59 -14 -48 0 -75 -18 -55 -38 8 -8 19 -7
40 4 38 20 87 14 104 -11 17 -26 4 -47 -30 -47 -30 0 -32 -5 -10 -36 18 -26 2
-30 -23 -4 -21 20 -115 19 -131 -1 -14 -18 -25 -100 -12 -92 5 3 10 1 10 -4 0
-6 4 -11 9 -11 5 0 6 20 4 44 -6 45 4 60 31 50 12 -5 14 -10 6 -19 -12 -15 -3
-25 24 -25 12 0 16 -3 10 -8 -6 -4 -8 -18 -4 -32 6 -24 7 -24 14 7 5 22 3 43
-7 63 -18 35 -4 40 24 8 23 -29 24 -54 2 -67 -10 -5 -14 -13 -10 -17 5 -5 12
-2 17 6 6 8 10 11 11 5 0 -5 7 4 14 20 l13 30 13 -27 c6 -15 16 -25 20 -22 5
3 9 1 9 -4 0 -5 6 -9 13 -9 20 0 14 54 -10 79 -28 30 -29 44 -3 58 27 15 25
42 -6 73 -23 23 -24 28 -10 33 23 9 20 31 -6 38 -32 8 -34 8 -48 -8z m37 -192
c9 8 43 -24 43 -41 0 -7 -7 -13 -15 -13 -8 0 -15 9 -15 20 0 11 -6 20 -14 20
-8 0 -24 9 -37 21 l-24 20 28 -17 c15 -9 30 -14 34 -10z"/>
<path d="M1477 1433 c-4 -3 -7 -15 -7 -26 0 -17 -5 -18 -37 -13 -23 3 -30 2
-19 -3 22 -8 7 -24 -16 -16 -15 5 -68 -38 -68 -57 0 -9 3 -9 10 2 8 13 10 12
10 -3 0 -10 7 -20 16 -24 9 -3 12 -8 5 -12 -6 -4 -7 -12 -1 -21 6 -9 10 -10
10 -3 0 7 9 10 21 8 17 -4 19 -2 9 10 -15 18 -6 19 21 5 10 -6 19 -7 19 -2 0
4 23 8 50 8 28 0 50 -4 50 -8 0 -5 9 -4 19 2 27 14 36 13 21 -5 -10 -12 -8
-14 9 -10 26 5 27 -15 3 -36 -17 -15 -20 -15 -31 0 -6 9 -9 10 -6 4 3 -7 2
-13 -4 -13 -5 0 -12 6 -14 13 -4 9 -6 9 -6 -1 -1 -7 -5 -10 -11 -7 -19 12 -10
25 17 25 14 0 24 3 20 6 -9 9 -101 11 -122 3 -17 -6 -16 -8 8 -8 17 -1 27 -6
27 -16 0 -18 -16 -20 -23 -2 -4 10 -6 10 -6 0 -1 -7 -6 -13 -12 -13 -5 0 -7 6
-4 13 4 6 0 5 -7 -4 -12 -15 -15 -15 -28 0 -14 14 -15 12 -20 -17 -4 -23 -14
-38 -38 -52 -31 -19 -34 -19 -50 -4 -42 43 -56 44 -623 44 l-542 0 7 -32 c13
-67 62 -108 128 -108 28 0 38 -5 43 -21 7 -22 60 -59 85 -59 8 0 30 -18 50
-41 30 -35 42 -42 83 -46 35 -4 52 -12 63 -28 25 -39 57 -45 224 -45 l159 0
17 -32 c50 -97 113 -139 247 -165 17 -3 33 -16 42 -34 9 -16 24 -33 34 -38 10
-6 21 -24 24 -40 5 -22 14 -32 32 -37 24 -6 25 -9 25 -84 0 -55 4 -81 14 -89
19 -16 192 -13 205 3 6 7 11 48 13 91 3 75 4 79 28 85 19 4 26 13 28 38 2 24
10 36 27 42 14 5 27 21 31 35 4 15 13 25 25 25 38 0 135 31 165 53 44 32 92
89 99 120 l7 27 164 0 c172 0 203 6 228 45 11 16 28 24 61 27 48 6 89 34 101
70 3 12 15 18 35 18 29 0 52 18 97 74 8 10 28 16 56 16 47 0 76 22 95 72 23
61 50 58 -543 58 l-541 0 -43 -25 c-42 -24 -43 -24 -75 -6 -29 17 -32 22 -30
65 1 37 -2 46 -15 46 -10 1 -3 7 14 14 33 15 44 33 44 72 0 15 -6 24 -15 24
-9 0 -15 -9 -14 -22 0 -22 1 -22 9 -3 8 19 9 19 9 -2 1 -13 -3 -23 -9 -23 -5
0 -7 -8 -3 -17 5 -15 3 -15 -9 1 -15 19 -16 19 -22 -2 -6 -18 -10 -20 -27 -9
-10 6 -19 17 -19 24 0 7 -4 13 -10 13 -15 0 -12 -16 6 -34 14 -15 14 -16 0
-16 -9 0 -16 7 -16 16 0 11 -6 15 -19 11 -20 -5 -31 15 -31 61 0 12 -4 22 -10
22 -5 0 -10 -10 -10 -22 0 -13 -3 -33 -6 -46 -6 -21 -8 -21 -28 -8 -20 13 -24
12 -46 -11 l-24 -24 -12 23 c-10 19 -10 26 1 37 8 8 18 11 22 7 4 -4 1 -11 -7
-16 -8 -6 -10 -10 -4 -10 6 0 17 7 25 16 8 10 23 14 40 12 20 -3 27 0 27 11
-1 9 2 26 6 39 7 22 5 28 -7 15z m82 -223 c10 0 25 -6 34 -12 14 -11 -2 -13
-92 -13 -65 0 -106 4 -101 9 13 13 80 25 114 20 16 -2 36 -4 45 -4z m-1124
-41 c147 -9 185 -15 207 -30 24 -17 48 -19 228 -19 171 0 200 -2 200 -15 0
-13 -55 -15 -434 -15 -483 0 -466 -3 -486 69 l-9 34 57 -6 c31 -3 138 -11 237
-18z m792 10 c15 -6 38 -20 50 -31 20 -19 21 -22 6 -44 -24 -37 -32 -88 -17
-115 16 -31 10 -39 -33 -39 -82 0 -143 59 -143 138 l0 42 -209 0 c-186 0 -212
2 -227 18 -13 13 -47 19 -153 28 -126 10 -105 11 281 13 274 0 426 -3 445 -10z
m1273 -1 c-116 -8 -137 -12 -149 -29 -13 -18 -27 -19 -227 -19 l-213 0 1 -40
c1 -77 -64 -140 -146 -140 -35 0 -38 2 -31 23 13 37 8 94 -11 126 -17 29 -17
32 -1 48 39 39 69 42 497 41 347 -1 393 -2 280 -10z m360 7 c0 -20 -32 -75
-48 -84 -14 -7 -162 -11 -451 -11 -376 0 -431 2 -431 15 0 13 29 15 202 15
177 0 204 2 221 17 15 14 59 21 225 34 242 19 282 21 282 14z m-1377 -24 c4
-1 11 -1 17 -1 10 0 40 -91 40 -122 0 -10 -7 -18 -15 -18 -12 0 -15 13 -15 56
0 34 -4 53 -10 49 -5 -3 -10 -28 -10 -56 0 -42 -3 -49 -19 -49 -19 0 -19 1 -1
67 25 91 17 94 -10 4 -17 -56 -26 -71 -41 -71 -25 0 -24 4 16 80 28 53 30 59
10 35 -14 -16 -33 -49 -42 -72 -12 -28 -24 -43 -36 -43 -14 0 -17 5 -12 23 11
35 44 85 70 106 14 10 21 22 17 26 -4 4 2 3 13 -3 11 -5 23 -10 28 -11z m128
4 c55 -4 131 -90 115 -131 -9 -23 -24 -16 -31 15 -3 17 -23 47 -43 69 -20 21
-30 29 -21 18 27 -34 59 -90 59 -103 0 -28 -29 -11 -40 23 -13 39 -75 114 -93
114 -6 0 -2 -7 10 -15 23 -16 56 -65 71 -106 9 -22 8 -25 -9 -24 -14 1 -29 20
-48 62 -16 33 -34 63 -39 67 -6 4 2 -20 18 -51 34 -67 37 -82 13 -79 -11 2
-21 19 -28 52 -6 27 -15 56 -20 63 -10 18 23 44 45 35 8 -4 27 -7 41 -9z
m-215 -35 c-19 -21 -40 -54 -47 -74 -8 -23 -19 -36 -31 -36 -17 0 -17 3 3 43
12 23 33 56 48 72 l26 30 -34 -30 c-18 -16 -42 -50 -53 -74 -14 -30 -23 -40
-31 -32 -16 16 32 100 68 120 17 9 43 17 58 17 l27 2 -34 -38z m-468 -77 c6
-15 12 -31 12 -35 0 -4 -131 -8 -290 -8 l-291 0 -24 25 c-14 13 -25 29 -25 35
0 7 99 10 303 10 l302 0 13 -27z m142 17 c0 -12 -74 -32 -103 -28 -12 2 -23
11 -25 21 -3 15 5 17 62 17 36 0 66 -4 66 -10z m988 -7 c-4 -23 -35 -27 -87
-13 -61 16 -50 30 25 30 57 0 65 -2 62 -17z m632 7 c0 -6 -11 -22 -25 -35
l-24 -25 -291 0 c-159 0 -290 4 -290 8 0 4 6 20 13 35 l12 27 303 0 c203 0
302 -3 302 -10z m-1606 -37 c8 -19 -5 -29 -54 -43 -49 -14 -58 -13 -69 9 -13
23 -5 31 33 32 17 0 40 4 51 9 29 12 32 12 39 -7z m919 0 c51 -6 54 -10 33
-38 -13 -18 -37 -16 -111 10 -20 7 -20 7 0 -9 11 -9 36 -19 57 -23 40 -6 45
-12 26 -31 -19 -19 -65 -14 -95 12 l-27 24 19 36 c14 25 24 34 35 30 8 -4 36
-9 63 -11z m-689 -94 c29 -78 33 -98 11 -58 -26 48 -55 129 -46 129 5 0 20
-32 35 -71z m70 -104 c27 -96 51 -173 54 -171 2 2 -17 78 -42 169 -25 90 -46
167 -46 171 0 17 30 3 35 -16 32 -139 65 -324 60 -341 -5 -22 -5 -22 6 -1 8
16 3 59 -24 193 l-34 171 22 0 c26 0 27 -3 46 -218 7 -72 14 -130 17 -127 6 5
-17 299 -24 328 -4 12 0 17 15 17 20 0 21 -5 21 -154 0 -93 4 -157 10 -161 7
-4 10 50 10 154 0 147 1 161 18 161 16 0 17 -8 5 -137 -8 -76 -12 -154 -11
-173 2 -19 9 28 16 105 18 189 21 205 41 205 16 0 15 -13 -11 -157 -15 -87
-27 -165 -26 -173 2 -8 14 42 27 110 42 225 41 220 63 220 14 0 18 -5 14 -17
-53 -176 -85 -316 -76 -331 8 -13 9 -10 5 13 -4 22 -3 25 3 10 10 -23 17 -135
17 -275 l0 -95 -93 -3 c-76 -2 -93 0 -98 13 -4 9 -3 82 1 163 l8 147 32 -70
c45 -98 50 -115 32 -115 -19 0 -29 -39 -21 -79 6 -28 10 -31 44 -31 34 0 39 3
45 29 8 37 -3 81 -21 81 -19 0 -19 1 21 92 33 75 34 81 19 101 -16 22 -16 22
-10 -6 5 -19 3 -26 -4 -22 -5 3 -11 16 -11 28 -1 16 -3 17 -6 5 -2 -9 1 -27 7
-39 8 -14 9 -24 2 -31 -7 -7 -14 4 -21 33 -9 37 -10 38 -7 9 2 -19 7 -46 11
-60 5 -14 4 -22 0 -18 -4 4 -16 3 -27 -3 -18 -10 -19 -7 -15 48 3 32 3 47 0
33 -8 -47 -13 -56 -23 -40 -5 9 -5 19 2 27 5 7 8 18 5 25 -4 8 -6 7 -6 -4 -2
-35 -20 -17 -37 37 -10 30 -21 52 -25 50 -4 -3 -5 5 -2 17 3 17 2 19 -5 10 -7
-10 -9 -6 -9 15 0 15 -18 79 -41 141 -35 95 -38 112 -24 112 13 0 27 -37 66
-175z m306 167 c0 -4 -20 -65 -45 -136 -25 -70 -43 -132 -39 -137 3 -5 2 -19
-2 -31 -6 -19 -7 -19 -16 -5 -12 23 70 317 89 317 7 0 13 -4 13 -8z m40 2 c0
-3 -19 -49 -42 -102 l-41 -97 2 -120 c1 -66 4 -135 8 -152 5 -30 3 -33 -21
-33 l-26 0 0 94 c0 61 5 106 15 129 19 46 19 60 0 27 -22 -39 -18 -22 24 96
56 157 59 164 71 164 5 0 10 -2 10 -6z m-774 -18 c8 -8 14 -21 14 -28 0 -8 4
-18 9 -23 6 -6 -84 -10 -245 -10 l-256 0 -19 24 c-41 51 -39 51 232 51 204 0
253 -3 265 -14z m158 5 c10 -15 -53 -61 -83 -61 -44 0 -72 40 -28 40 12 1 36
7 52 15 36 16 52 18 59 6z m1446 -5 c0 -8 -9 -24 -19 -37 l-19 -24 -256 0
c-161 0 -251 4 -245 10 5 5 9 15 9 22 0 40 16 42 278 43 209 0 252 -2 252 -14z
m-1412 -28 c27 -27 -47 -85 -94 -74 -29 8 -32 36 -5 36 11 0 33 11 48 25 32
28 35 29 51 13z m754 -13 c16 -14 38 -25 49 -25 27 0 24 -28 -5 -36 -47 -11
-121 47 -94 74 16 16 16 16 50 -13z m-697 -34 c-11 -44 -34 -61 -82 -61 -52 0
-54 9 -9 34 18 10 39 28 46 41 18 33 54 22 45 -14z m70 -79 c-7 -7 -70 -6 -83
2 -16 9 36 100 61 106 20 6 22 2 25 -48 2 -30 0 -57 -3 -60z m612 51 c44 -24
42 -33 -10 -33 -48 0 -71 17 -82 62 -9 35 24 44 45 12 8 -13 29 -31 47 -41z
m-94 6 c28 -56 21 -64 -50 -60 -21 1 -23 6 -23 56 0 51 2 55 24 55 18 0 29
-11 49 -51z m-457 -176 c3 -122 3 -123 -20 -123 -23 0 -23 0 -23 168 l-1 167
21 -45 c17 -37 21 -68 23 -167z m-311 177 c10 -11 24 -20 32 -20 7 0 13 -4 13
-10 0 -6 -78 -10 -214 -10 -201 0 -215 1 -240 21 -14 11 -26 25 -26 30 0 5 87
9 208 9 196 0 210 -1 227 -20z m684 -140 c-1 -157 -1 -160 -23 -160 -20 0 -21
4 -20 118 0 90 4 127 18 160 10 23 20 42 22 42 2 0 3 -72 3 -160z m701 151 c0
-5 -12 -19 -26 -30 -25 -20 -39 -21 -243 -20 -171 0 -212 3 -197 12 10 7 26
20 35 30 14 15 38 17 223 17 121 0 208 -4 208 -9z m-1046 -122 c-2 -9 2 -32
11 -52 10 -24 15 -69 15 -132 l0 -95 -26 0 c-14 0 -23 4 -20 8 7 12 9 304 2
327 -4 11 0 7 8 -10 8 -16 13 -37 10 -46z m-226 39 c-8 -13 -34 -30 -57 -38
-49 -17 -74 -7 -79 34 l-3 26 77 0 76 0 -14 -22z m55 8 c18 -14 18 -15 1 -42
-10 -15 -41 -37 -69 -50 l-50 -24 -19 22 c-18 23 -18 23 10 29 45 9 74 28 84
55 11 27 18 29 43 10z m657 -10 c10 -27 39 -46 84 -55 28 -6 28 -6 10 -29
l-19 -22 -50 24 c-28 13 -59 35 -69 50 -17 27 -17 28 1 42 25 19 32 17 43 -10z
m150 0 c0 -13 -7 -29 -15 -36 -28 -24 -125 11 -125 46 0 11 16 14 70 14 67 0
70 -1 70 -24z m-725 -27 c-4 -12 -25 -42 -47 -65 -34 -37 -47 -44 -77 -44 -62
0 -67 19 -10 47 27 14 57 38 66 53 10 18 27 30 42 32 33 4 34 4 26 -23z m518
-9 c10 -16 39 -39 66 -53 56 -28 52 -47 -9 -47 -28 0 -43 8 -72 38 -35 36 -58
72 -58 90 0 21 58 -1 73 -28z m-520 -111 c-13 -13 -57 -20 -71 -11 -9 6 0 20
30 53 l43 44 3 -39 c2 -21 0 -42 -5 -47z m525 -11 c-17 -10 -22 -10 -52 2 -23
8 -26 15 -26 55 l0 45 45 -47 c33 -34 42 -49 33 -55z m-268 -263 c0 -43 -1
-45 -30 -45 -29 0 -30 2 -30 45 0 43 1 45 30 45 29 0 30 -2 30 -45z"/>
<path d="M1328 1393 c-6 -22 0 -43 13 -43 11 0 12 31 0 48 -6 11 -9 10 -13 -5z"/>
<path d="M1551 1391 c-34 -9 -39 -30 -6 -23 16 3 33 -2 45 -13 11 -10 23 -15
27 -12 3 4 1 7 -6 7 -8 0 -11 7 -7 15 3 8 2 14 -2 14 -19 -3 -25 2 -12 11 13
9 13 10 0 9 -8 -1 -26 -4 -39 -8z"/>
</g>
</svg>
